<svg xmlns="http://www.w3.org/2000/svg" viewBox="0 -0.5 128 128" shape-rendering="crispEdges">
<metadata>Made with Pixels to Svg https://codepen.io/shshaw/pen/XbxvNj</metadata>
<path stroke="#ffffff" d="M52 0h4M72 0h4M52 1h4M72 1h4M52 2h4M72 2h4M52 3h3M72 3h4M48 4h3M72 4h4M48 5h4M72 5h4M48 6h4M72 6h4M48 7h4M72 7h4M44 8h4M76 8h4M44 9h4M76 9h2M79 9h1M44 10h4M76 10h4M44 11h4M76 11h4M40 12h4M80 12h4M40 13h1M42 13h2M80 13h4M40 14h4M80 14h4M40 15h4M80 15h4M36 16h4M84 16h4M36 17h4M84 17h4M36 18h4M84 18h4M36 19h4M84 19h4M36 20h8M84 20h4M36 21h8M84 21h4M36 22h8M84 22h4M36 23h8M84 23h4M52 32h4M52 33h4M52 34h4M52 35h4" />
<path stroke="#feffff" d="M55 3h1M78 9h1" />
<path stroke="#fffeff" d="M51 4h1" />
<path stroke="#d2d2d2" d="M52 4h4M76 4h4M52 5h4M76 5h4M52 6h4M76 6h4M52 7h4M76 7h4M48 8h4M80 8h4M48 9h4M80 9h4M48 10h4M80 10h1M82 10h2M48 11h4M80 11h4M44 12h4M84 12h1M86 12h2M44 13h4M84 13h4M44 14h4M84 14h4M44 15h4M84 15h4M40 16h4M88 16h4M40 17h4M88 17h4M40 18h4M88 18h4M40 19h4M88 19h3M44 20h4M80 20h4M88 20h4M44 21h4M80 21h4M88 21h4M44 22h2M47 22h1M80 22h4M89 22h3M44 23h4M80 23h4M88 23h4" />
<path stroke="#a9a9a6" d="M56 8h8M56 9h8M56 10h8M56 11h8M52 12h4M52 13h4M52 14h4M52 15h4M48 16h4M48 17h4M48 18h4M48 19h4M48 20h4M48 21h4M48 22h4M48 23h4" />
<path stroke="#a0a098" d="M64 8h8M64 9h8M64 10h8M64 11h8M56 12h20M57 13h19M56 14h20M56 15h20M52 16h28M52 17h25M78 17h2M52 18h28M52 19h28M52 20h7M60 20h7M68 20h4M52 21h20M52 22h17M70 22h2M52 23h14M67 23h5M56 24h4M56 25h4M57 26h3M56 27h1M58 27h2" />
<path stroke="#d2d3d2" d="M81 10h1M88 22h1" />
<path stroke="#d2d2d3" d="M85 12h1M46 22h1" />
<path stroke="#fffffe" d="M41 13h1" />
<path stroke="#a0a198" d="M56 13h1M77 17h1M69 22h1M66 23h1" />
<path stroke="#d3d2d2" d="M91 19h1" />
<path stroke="#a1a098" d="M59 20h1M67 20h1M56 26h1" />
<path stroke="#91918a" d="M72 20h8M72 21h8M72 22h8M72 23h8M60 24h12M60 25h12M60 26h12M60 27h12" />
<path stroke="#1a1a1a" d="M48 24h8M48 25h4M53 25h3M48 26h8M48 27h8M68 32h8M68 33h8M68 34h8M68 35h8" />
<path stroke="#a6a52f" d="M72 24h4M72 25h4M72 26h4M72 27h4M48 28h4M76 28h4M48 29h4M76 29h4M48 30h4M76 30h4M48 31h4M76 31h4" />
<path stroke="#000000" d="M76 24h4M76 25h4M76 26h4M76 27h4M68 28h8M68 29h8M68 30h8M68 31h8" />
<path stroke="#1a1a1b" d="M52 25h1" />
<path stroke="#a0a099" d="M57 27h1" />
<path stroke="#f3f3f3" d="M52 28h4M52 29h4M52 30h4M52 31h4" />
<path stroke="#508bc7" d="M56 28h4M56 29h4M56 30h4M56 31h4" />
<path stroke="#e3cbae" d="M60 28h8M60 29h8M60 30h8M60 31h8M52 40h4M72 40h4M52 41h4M72 41h4M52 42h4M72 42h4M52 43h4M72 43h4M40 84h4M40 85h4M40 86h4M40 87h4M40 88h4M52 88h4M40 89h4M52 89h4M40 90h4M52 90h2M55 90h1M41 91h3M52 91h4M44 92h1M46 92h6M44 93h8M44 94h8M44 95h8" />
<path stroke="#82827c" d="M48 32h4M48 33h4M48 34h4M48 35h4M48 36h4M48 37h4M48 38h4M48 39h4M48 40h4M48 41h4M48 42h4M48 43h4M48 44h4M80 44h8M48 45h1M50 45h2M80 45h8M48 46h4M80 46h8M48 47h4M80 47h8M48 48h4M48 49h4M48 50h4M48 51h4M48 52h4M48 53h4M48 54h4M48 55h4M48 56h4M48 57h4M48 58h4M48 59h4M48 60h4M48 61h4M48 62h4M48 63h4M48 64h4M48 65h4M48 66h4M48 67h4M49 68h3M48 69h4M48 70h4M48 71h4M48 72h4M88 72h4M48 73h4M88 73h4M48 74h4M88 74h4M48 75h4M88 75h4M48 76h4M88 76h4M48 77h4M88 77h4M48 78h4M88 78h4M48 79h4M88 79h4M48 80h4M48 81h4M48 82h4M48 83h4M48 84h4M48 85h4M48 86h4M48 87h4M80 104h8M80 105h8M80 106h8M80 107h8" />
<path stroke="#5695d5" d="M56 32h4M56 33h4M56 34h4M56 35h4" />
<path stroke="#ffe4c4" d="M60 32h8M60 33h8M60 34h8M60 35h8M52 36h4M72 36h4M52 37h4M72 37h4M52 38h4M72 38h4M52 39h3M72 39h4M45 88h3M44 89h3M44 90h4M44 91h4" />
<path stroke="#e3e140" d="M76 32h4M76 33h4M76 34h4M76 35h4M76 36h4M76 37h4M76 38h4M76 39h4M76 40h4M76 41h4M76 42h4M76 43h4" />
<path stroke="#c9c7c1" d="M56 36h12M56 37h12M56 38h12M56 39h12M56 40h12M56 41h12M56 42h12M56 43h12M60 44h4M60 45h4M60 46h4M60 47h4M60 48h4M60 49h3M60 50h4M60 51h4" />
<path stroke="#b4b3ad" d="M68 36h4M68 37h4M69 38h3M68 39h4M68 40h4M68 41h4M68 42h2M71 42h1M68 43h4M64 44h4M64 45h4M64 46h4M64 47h4M64 48h4M64 49h4M64 50h4M64 51h2M67 51h1" />
<path stroke="#b4b2ad" d="M68 38h1M70 42h1" />
<path stroke="#ffe5c4" d="M55 39h1" />
<path stroke="#2b7c2b" d="M52 44h4M72 44h4M52 45h4M72 45h3M52 46h4M73 46h3M52 47h4M72 47h4M44 48h4M52 48h4M44 49h4M52 49h4M44 50h4M52 50h4M44 51h4M52 51h4M44 52h4M56 52h2M59 52h1M68 52h4M44 53h4M56 53h4M68 53h1M70 53h2M44 54h1M46 54h2M56 54h4M68 54h4M44 55h4M56 55h4M68 55h4M44 56h4M56 56h12M44 57h4M56 57h4M61 57h7M44 58h4M56 58h12M44 59h4M56 59h12M44 60h4M56 60h12M44 61h4M56 61h1M58 61h10M44 62h4M56 62h12M44 63h4M56 63h12M44 64h4M56 64h12M44 65h4M56 65h12M44 66h4M56 66h12M44 67h4M56 67h12M44 68h4M56 68h12M44 69h4M56 69h12M44 70h4M56 70h12M44 71h2M47 71h1M56 71h12M44 72h4M56 72h12M44 73h4M56 73h10M67 73h1M44 74h4M56 74h12M44 75h4M56 75h12M44 76h4M56 76h12M44 77h4M56 77h10M67 77h1M44 78h4M56 78h12M44 79h4M56 79h12M44 80h4M56 80h8M44 81h4M56 81h5M62 81h2M44 82h4M56 82h8M44 83h4M56 83h8" />
<path stroke="#2c872c" d="M56 44h4M68 44h4M56 45h4M68 45h4M56 46h3M68 46h4M56 47h4M68 47h4M56 48h4M68 48h4M56 49h4M68 49h4M56 50h4M68 50h3M56 51h4M68 51h4M60 52h8M60 53h8M60 54h8M60 55h8" />
<path stroke="#a2a29c" d="M76 44h4M76 45h4M76 46h4M76 47h4M72 48h4M72 49h4M72 50h4M72 51h4M72 52h4M72 53h4M72 54h4M72 55h4M72 56h4M72 57h4M72 58h4M72 59h4M72 60h1M74 60h2M72 61h4M72 62h4M72 63h4M72 64h1M74 64h2M72 65h4M73 66h3M72 67h4M72 68h4M72 69h4M72 70h4M72 71h4M72 72h4M84 72h4M72 73h4M84 73h4M72 74h4M84 74h4M72 75h4M84 75h4M72 76h4M84 76h4M72 77h4M84 77h1M86 77h2M72 78h4M84 78h4M72 79h4M84 79h4M72 80h4M72 81h4M72 82h4M72 83h4M72 84h4M72 85h4M72 86h4M72 87h4M72 88h4M72 89h4M72 90h4M72 91h1M74 91h2M72 92h4M72 93h4M72 94h4M72 95h4M72 96h4M72 97h4M72 98h4M72 99h3M72 100h4M72 101h4M72 102h4M72 103h4M76 104h4M76 105h4M76 106h4M76 107h1M79 107h1" />
<path stroke="#83827c" d="M49 45h1" />
<path stroke="#2b7d2b" d="M75 45h1M58 52h1M69 53h1M45 54h1M60 57h1M57 61h1" />
<path stroke="#2d872c" d="M59 46h1M71 50h1" />
<path stroke="#2a7c2b" d="M72 46h1M46 71h1M66 73h1M66 77h1" />
<path stroke="#d53434" d="M76 48h6M83 48h1M76 49h8M76 50h8M76 51h8M76 52h12M76 53h12M76 54h11M76 55h12M76 56h12M76 57h12M76 58h12M76 59h10M87 59h1M76 60h1M78 60h5M84 60h4M76 61h12M76 62h12M76 63h12M76 64h12M76 65h12M76 66h12M76 67h12M77 68h11M76 69h10M87 69h1M76 70h2M79 70h9M76 71h12M76 72h8M76 73h8M76 74h8M76 75h8M76 76h8M76 77h8M76 78h8M76 79h8M76 80h12M76 81h12M76 82h12M76 83h12M76 84h12M76 85h12M76 86h12M76 87h12M76 88h9M86 88h2M76 89h12M76 90h12M76 91h12M76 92h3M80 92h8M76 93h12M76 94h12M76 95h12M77 96h11M76 97h12M76 98h8M85 98h3M76 99h12M76 100h8M76 101h8M76 102h8M76 103h8" />
<path stroke="#d53534" d="M82 48h1M87 54h1M86 59h1M77 60h1M76 68h1" />
<path stroke="#ac2f2f" d="M84 48h4M84 49h4M84 50h4M84 51h4M88 52h4M88 53h4M88 54h4M88 55h4M88 56h4M88 57h2M91 57h1M88 58h4M88 59h4M88 60h4M88 61h4M88 62h4M88 63h4M88 64h4M88 65h4M88 66h4M88 67h4M88 68h4M88 69h4M88 70h4M89 71h3M88 80h4M88 81h4M88 82h4M88 83h4M88 84h4M88 85h4M88 86h4M88 87h4M88 88h4M88 89h4M88 90h4M88 91h4M88 92h4M88 93h4M88 94h4M88 95h4M88 96h4M88 97h4M88 98h4M88 99h4M84 100h4M84 101h4M84 102h4M84 103h4" />
<path stroke="#c9c7c0" d="M63 49h1" />
<path stroke="#b5b3ad" d="M66 51h1" />
<path stroke="#277027" d="M52 52h4M52 53h4M52 54h4M52 55h4M52 56h4M52 57h4M52 58h4M52 59h4M52 60h4M52 61h4M52 62h4M52 63h4M52 64h4M52 65h4M52 66h4M52 67h4M52 68h4M52 69h4M52 70h1M54 70h2M52 71h1M54 71h2M52 72h1M54 72h2M52 73h4M52 74h4M52 75h4M52 76h4M52 77h4M52 78h4M52 79h4M52 80h4M52 81h4M52 82h4M52 83h4" />
<path stroke="#317031" d="M68 56h2M71 56h1M68 57h4M68 58h4M68 59h4M68 60h4M68 61h1M70 61h2M68 62h4M68 63h4M68 64h4M68 65h4M68 66h4M69 67h3M68 68h4M68 69h4M68 70h4M68 71h4M68 72h4M68 73h4M68 74h4M68 75h4M68 76h4M68 77h4M68 78h4M68 79h4M64 80h8M64 81h8M64 82h8M65 83h7M56 84h14M71 84h1M56 85h16M56 86h16M56 87h2M59 87h13" />
<path stroke="#317131" d="M70 56h1M69 61h1" />
<path stroke="#ac2e2f" d="M90 57h1M88 71h1" />
<path stroke="#a3a29c" d="M73 60h1M85 77h1M78 107h1" />
<path stroke="#d43434" d="M83 60h1M86 69h1M85 88h1M84 98h1" />
<path stroke="#a2a39c" d="M73 64h1" />
<path stroke="#a2a29d" d="M72 66h1M73 91h1M75 99h1M77 107h1" />
<path stroke="#307031" d="M68 67h1M64 83h1M70 84h1" />
<path stroke="#82837c" d="M48 68h1" />
<path stroke="#277026" d="M53 70h1" />
<path stroke="#d53435" d="M78 70h1M79 92h1M76 96h1" />
<path stroke="#277127" d="M53 71h1M53 72h1" />
<path stroke="#2b7c2a" d="M61 81h1" />
<path stroke="#c6c4c4" d="M44 84h4M52 84h4M44 85h4M52 85h4M44 86h4M52 86h4M44 87h4M52 87h4M48 88h4M48 89h4M48 90h4M48 91h4" />
<path stroke="#317030" d="M58 87h1" />
<path stroke="#ffe4c5" d="M44 88h1" />
<path stroke="#685009" d="M56 88h16M56 89h2M59 89h13M56 90h15M56 91h16M52 92h4M52 93h4M52 94h4M52 95h4M48 96h4M48 97h4M48 98h4M48 99h4M48 100h4M48 101h4M48 102h4M48 103h4" />
<path stroke="#fee4c4" d="M47 89h1" />
<path stroke="#685109" d="M58 89h1M71 90h1" />
<path stroke="#e2cbae" d="M54 90h1" />
<path stroke="#e3caae" d="M40 91h1" />
<path stroke="#e3cbaf" d="M45 92h1" />
<path stroke="#6e5403" d="M56 92h16M56 93h16M56 94h14M71 94h1M56 95h16M52 96h8M64 96h8M52 97h2M55 97h5M64 97h8M52 98h8M64 98h8M52 99h8M64 99h8M53 100h7M68 100h4M52 101h8M68 101h4M52 102h8M68 102h4M52 103h8M68 103h4" />
<path stroke="#6e5402" d="M70 94h1M54 97h1" />
<path stroke="#634c05" d="M60 96h4M60 97h4M60 98h4M60 99h4M64 100h4M64 101h4M64 102h4M64 103h4" />
<path stroke="#6e5503" d="M52 100h1" />
<path stroke="#594404" d="M60 100h4M60 101h4M60 102h4M60 103h4" />
<path stroke="#856504" d="M48 104h4M48 105h4M48 106h4M48 107h4M48 108h4M64 108h4M76 108h4M48 109h4M64 109h4M76 109h4M48 110h4M64 110h4M76 110h4M48 111h4M64 111h4M76 111h4M48 112h4M60 112h5M66 112h2M76 112h4M48 113h4M60 113h8M76 113h4M48 114h4M61 114h7M76 114h1M78 114h2M48 115h4M60 115h8M76 115h4M44 116h4M60 116h8M80 116h4M44 117h4M60 117h8M80 117h1M82 117h2M44 118h4M60 118h8M80 118h4M44 119h4M60 119h8M80 119h4M44 120h4M60 120h8M80 120h4M44 121h4M60 121h8M80 121h4M44 122h4M60 122h8M80 122h4M44 123h4M60 123h8M80 123h4M48 124h9M58 124h2M68 124h2M71 124h9M48 125h12M68 125h6M75 125h5M48 126h12M68 126h12M48 127h12M68 127h12" />
<path stroke="#947105" d="M52 104h8M68 104h8M52 105h8M68 105h8M52 106h8M68 106h8M52 107h8M68 107h3M72 107h4M52 108h8M68 108h8M52 109h8M68 109h8M52 110h8M68 110h8M52 111h8M68 111h4M73 111h3M52 112h8M68 112h2M71 112h5M52 113h1M54 113h6M68 113h8M52 114h8M68 114h8M52 115h1M54 115h6M68 115h8M48 116h12M68 116h12M48 117h12M68 117h12M48 118h12M68 118h12M48 119h12M68 119h12M52 120h8M68 120h8M52 121h8M68 121h8M52 122h8M68 122h8M52 123h8M68 123h8" />
<path stroke="#755a04" d="M60 104h4M60 105h4M60 106h4M60 107h4" />
<path stroke="#7d5f04" d="M64 104h4M64 105h4M64 106h4M64 107h4M60 108h4M60 109h4M60 110h4M60 111h4" />
<path stroke="#947005" d="M71 107h1" />
<path stroke="#947104" d="M72 111h1M53 115h1" />
<path stroke="#856505" d="M65 112h1M70 124h1" />
<path stroke="#957105" d="M70 112h1M53 113h1" />
<path stroke="#856404" d="M60 114h1" />
<path stroke="#846504" d="M77 114h1M81 117h1M57 124h1M74 125h1" />
<path stroke="#9e7905" d="M48 120h4M76 120h4M48 121h4M76 121h4M48 122h4M76 122h4M48 123h4M76 123h4" />
</svg>